<svg xmlns="http://www.w3.org/2000/svg" xmlns:xlink="http://www.w3.org/1999/xlink" width="765.727" height="587.976" viewBox="0 0 765.727 587.976"><defs><style>.a,.f,.o,.p{fill:#b82a2a;}.a{opacity:0.05;}.b{fill:none;stroke:#535461;stroke-miterlimit:10;stroke-width:2px;}.c,.l{fill:#6c63ff;}.d,.w{fill:#4fb848;}.e{opacity:0.25;}.f,.g,.h,.l,.v,.w{opacity:0.1;}.g,.s{fill:#343434;}.i{fill:#e8e8e8;}.j{fill:#535461;}.k{opacity:0.2;}.m{fill:url(#a);}.n{fill:#fff;}.p{opacity:0.099;}.q{fill:url(#b);}.r{fill:#d0d0d0;}.t{fill:#a1616a;}.u{fill:#444053;}</style><linearGradient id="a" x1="0.5" y1="1" x2="0.5" gradientUnits="objectBoundingBox"><stop offset="0" stop-color="gray" stop-opacity="0.251"/><stop offset="0.54" stop-color="gray" stop-opacity="0.122"/><stop offset="1" stop-color="gray" stop-opacity="0.102"/></linearGradient><linearGradient id="b" x1="0.5" x2="0.5" xlink:href="#a"/></defs><g transform="translate(0.01 0.019)"><path class="a" d="M822.561,421.46c-.686.5-1.317.988-1.989,1.461a67.079,67.079,0,0,1-7.772,4.74c-14.118,7.443-31.522,11.079-48.473,13.549-38.018,5.543-76.833,6.62-115.482,7.676-104.431,2.867-209.115,5.728-313.292-.878-41.16-2.607-83.226-6.97-120.524-20.347q-8.019-2.868-15.723-6.325c-10.393-4.672-20.374-10.359-28.675-17.15-7.8-6.366-14.125-13.679-17.9-21.993-7.882-17.315-3.711-36.763,5.289-53.735a166.986,166.986,0,0,1,12.616-19.736c6.949-9.556,14.612-18.838,21.6-28.387,24.875-33.944,41.106-76.888,18.145-111.7-6.6-10-16.135-18.783-21.513-29.224-6.86-13.357-6.332-28.188-4.15-42.594q.425-2.744.9-5.433C189.336,70.019,196.347,47,217.963,33.667c22.453-13.857,54.339-13.158,82.2-8.232,43.335,7.738,83.309,23.846,123.708,38.389s82.664,27.831,127.062,29.258c39.205,1.262,84.934-8.184,110.955-32.736C687.164,36.5,734.67,34.683,768.908,49.089c23.5,9.885,41.037,27.694,48.432,47.725a62.3,62.3,0,0,1,3.217,12.43,57.325,57.325,0,0,1,.576,11.724c-.1,1.935-.3,3.849-.576,5.742-5.721,39.528-46.9,70.707-71.935,106.015-12.232,17.246-20.868,37.964-12.458,56.561,12.828,28.339,57.439,38.416,84.379,59.5a63.386,63.386,0,0,1,13.24,13.583C846.852,381.143,842.03,406.491,822.561,421.46Z" transform="translate(-75.393 -21.702)"/><g transform="translate(-0.01 -0.019)"><path class="b" d="M234.466,284.507s-31.556-55.923-79.11-72.031a97.265,97.265,0,0,1-49.283-36.866A163.27,163.27,0,0,1,91.53,149.46" transform="translate(-57.477 -61.638)"/><path class="c" d="M46.04,123.635c5.419,5.234,30.651,10.722,30.651,10.722S70.517,109.3,65.084,104.042A13.672,13.672,0,1,0,46.04,123.663Z" transform="translate(-41.89 -46.165)"/><path class="c" d="M63.708,188.065c7.4,1.468,31.556-7.676,31.556-7.676s-18.831-17.672-26.24-19.14a13.671,13.671,0,1,0-5.317,26.819Z" transform="translate(-45.281 -65.257)"/><path class="c" d="M135.995,259.893c7.134-2.47,23.324-22.549,23.324-22.549s-25.163-5.756-32.29-3.286a13.672,13.672,0,1,0,8.918,25.835Z" transform="translate(-65.603 -88.008)"/><path class="c" d="M206.722,300.792c7.45-1.235,26.823-18.282,26.823-18.282s-23.825-9.927-31.275-8.7a13.673,13.673,0,1,0,4.452,26.981Z" transform="translate(-88.653 -100.651)"/><path class="c" d="M132.876,154.338c0,7.546-13.652,29.45-13.652,29.45s-13.679-21.89-13.686-29.437a13.672,13.672,0,1,1,27.337,0Z" transform="translate(-61.874 -58.785)"/><path class="c" d="M213.9,202.1c-2.257,7.2-21.842,24.01-21.842,24.01s-6.5-25-4.274-32.242a13.672,13.672,0,0,1,26.068,8.17Z" transform="translate(-87.555 -72.748)"/><path class="c" d="M285.488,261.458c-1,7.484-17.466,27.358-17.466,27.358s-10.633-23.516-9.6-31a13.671,13.671,0,1,1,27.1,3.643Z" transform="translate(-109.856 -91.939)"/><path class="d" d="M46.04,123.635c5.419,5.234,30.651,10.722,30.651,10.722S70.517,109.3,65.084,104.042A13.672,13.672,0,1,0,46.04,123.663Z" transform="translate(-41.89 -46.165)"/><path class="d" d="M63.708,188.065c7.4,1.468,31.556-7.676,31.556-7.676s-18.831-17.672-26.24-19.14a13.671,13.671,0,1,0-5.317,26.819Z" transform="translate(-45.281 -65.257)"/><path class="d" d="M135.995,259.893c7.134-2.47,23.324-22.549,23.324-22.549s-25.163-5.756-32.29-3.286a13.672,13.672,0,1,0,8.918,25.835Z" transform="translate(-65.603 -88.008)"/><path class="e" d="M206.722,300.792c7.45-1.235,26.823-18.282,26.823-18.282s-23.825-9.927-31.275-8.7a13.673,13.673,0,1,0,4.452,26.981Z" transform="translate(-88.653 -100.651)"/><path class="d" d="M132.876,154.338c0,7.546-13.652,29.45-13.652,29.45s-13.679-21.89-13.686-29.437a13.672,13.672,0,1,1,27.337,0Z" transform="translate(-61.874 -58.785)"/><path class="e" d="M213.9,202.1c-2.257,7.2-21.842,24.01-21.842,24.01s-6.5-25-4.274-32.242a13.672,13.672,0,0,1,26.068,8.17Z" transform="translate(-87.555 -72.748)"/><path class="e" d="M285.488,261.458c-1,7.484-17.466,27.358-17.466,27.358s-10.633-23.516-9.6-31a13.671,13.671,0,1,1,27.1,3.643Z" transform="translate(-109.856 -91.939)"/><path class="b" d="M262.481,261.671s-6.174-63.922-43.136-97.921a97.235,97.235,0,0,1-30.116-53.673A163.371,163.371,0,0,1,186.54,80.27" transform="translate(-87.309 -39.913)"/><path class="d" d="M152.326,40.237c2.826,7,23.688,22.2,23.688,22.2s4.493-25.417,1.674-32.421a13.682,13.682,0,0,0-25.382,10.222Z" transform="translate(-76.247 -21.441)"/><path class="d" d="M142.348,106.311c6.174,4.342,31.947,5.762,31.947,5.762s-10-23.777-16.169-28.119a13.682,13.682,0,0,0-15.778,22.357Z" transform="translate(-71.614 -40.283)"/><path class="d" d="M179.438,201.266c7.546.638,30.486-11.154,30.486-11.154s-20.669-15.456-28.195-16.087a13.672,13.672,0,1,0-2.291,27.241Z" transform="translate(-81.051 -69.327)"/><path class="c" d="M227.464,267.294c7.313,1.893,31.934-5.845,31.934-5.845s-17.761-18.728-25.067-20.621A13.671,13.671,0,1,0,227.47,267.3Z" transform="translate(-96.944 -90.189)"/><path class="d" d="M219.2,103.637c-3.053,6.9-24.415,21.383-24.415,21.383s-3.636-25.547-.583-32.455a13.671,13.671,0,1,1,25,11.073Z" transform="translate(-89.332 -41.218)"/><path class="c" d="M271.407,179.727c-4.98,5.673-29.7,13.1-29.7,13.1s4.171-25.465,9.158-31.138a13.667,13.667,0,0,1,20.539,18.035Z" transform="translate(-104.632 -64.019)"/><path class="c" d="M314.615,263.262c-3.951,6.435-27.056,17.932-27.056,17.932s-.192-25.808,3.759-32.242a13.682,13.682,0,0,1,23.324,14.31Z" transform="translate(-119.028 -90.828)"/></g><ellipse class="f" cx="76.51" cy="9.961" rx="76.51" ry="9.961" transform="translate(203.487 564.344)"/><g transform="translate(100.261 529.234)"><ellipse class="g" cx="23.242" cy="3.979" rx="23.242" ry="3.979" transform="translate(1.95 40.323)"/><path class="d" d="M227.388,792.94s3.766,4.932-1.742,12.348-10.05,13.72-8.232,18.364c0,0,8.308-13.823,15.092-14.015S234.838,801.254,227.388,792.94Z" transform="translate(-197.147 -792.94)"/><path class="h" d="M227.493,792.94a6.059,6.059,0,0,1,.768,1.55c6.6,7.752,10.119,14.989,3.773,15.168-5.907.172-13,10.736-14.694,13.4a6.338,6.338,0,0,0,.2.61s8.308-13.823,15.092-14.015S234.943,801.254,227.493,792.94Z" transform="translate(-197.251 -792.94)"/><path class="i" d="M241.951,801.586c0,1.736-.192,3.142-.432,3.142s-.439-1.372-.439-3.142.247-.919.487-.919S241.951,799.85,241.951,801.586Z" transform="translate(-204.706 -795.302)"/><path class="i" d="M244.5,804.574c-1.523.83-2.854,1.331-2.97,1.118s1.029-1.056,2.552-1.886.919-.226,1.036,0S246.02,803.744,244.5,804.574Z" transform="translate(-204.843 -796.218)"/><path class="d" d="M199.247,792.94s-3.766,4.932,1.742,12.348,10.05,13.72,8.232,18.364c0,0-8.308-13.823-15.092-14.015S191.81,801.254,199.247,792.94Z" transform="translate(-188.913 -792.94)"/><path class="h" d="M199.24,792.94a6.058,6.058,0,0,0-.768,1.55c-6.6,7.752-10.119,14.989-3.773,15.168,5.913.172,13,10.736,14.694,13.4a4.875,4.875,0,0,1-.2.611s-8.308-13.823-15.092-14.015S191.8,801.254,199.24,792.94Z" transform="translate(-188.906 -792.94)"/><path class="i" d="M192.91,801.586c0,1.736.192,3.142.432,3.142s.439-1.372.439-3.142-.247-.919-.487-.919S192.91,799.85,192.91,801.586Z" transform="translate(-189.581 -795.302)"/><path class="i" d="M188.985,804.574c1.523.83,2.847,1.331,2.964,1.118s-1.029-1.056-2.552-1.886-.919-.226-1.036,0S187.462,803.744,188.985,804.574Z" transform="translate(-188.057 -796.218)"/><path class="j" d="M194.66,834.193s10.537-.329,13.72-2.586,16.2-4.967,16.992-1.338S241.206,848.3,229.31,848.4s-27.639-1.852-30.809-3.78S194.66,834.193,194.66,834.193Z" transform="translate(-190.13 -804.105)"/><path class="k" d="M229.516,849.739c-11.9.1-27.639-1.852-30.809-3.78-2.415-1.475-3.375-6.75-3.7-9.179h-.35s.686,8.493,3.835,10.427,18.913,3.876,30.809,3.78c3.43,0,4.624-1.249,4.555-3.06C233.385,849.039,232.075,849.718,229.516,849.739Z" transform="translate(-190.13 -806.706)"/><path class="d" d="M695.763,836.193s-29-1.749-25.581,18.577a4.945,4.945,0,0,0,2.573,5.22s.055-1.5,2.977-.995a13.275,13.275,0,0,0,3.149.151,6.517,6.517,0,0,0,3.855-1.591h0s8.15-3.361,11.319-16.69c0,0,2.346-2.909,2.257-3.656l-4.9,2.058s1.674,3.533.357,6.469c0,0-.158-6.339-1.1-6.174-.192,0-2.545,1.221-2.545,1.221s2.881,6.174.686,10.619c0,0,.823-7.546-1.605-10.173l-3.43,2.01s3.361,6.352,1.084,11.539c0,0,.583-7.951-1.8-11.052l-3.121,2.435s3.156,6.263,1.228,10.564c0,0-.247-9.254-1.907-9.954,0,0-2.744,2.408-3.149,3.43,0,0,2.161,4.541.823,6.942,0,0-.823-6.174-1.5-6.174,0,0-2.744,4.116-3,6.86a14.936,14.936,0,0,1,2.346-7.278,8.19,8.19,0,0,0-4.164,2.161s.425-2.888,4.8-3.142c0,0,2.25-3.1,2.854-3.286,0,0-4.391-.37-7.052.809,0,0,2.339-2.744,7.855-1.489l3.08-2.511s-5.776-.8-8.232.082c0,0,2.826-2.415,9.062-.686l3.361-2s-4.932-1.063-7.869-.686c0,0,3.1-1.674,8.849.137l2.4-1.077s-3.615-.686-4.672-.816-1.111-.4-1.111-.4a12.526,12.526,0,0,1,6.785.755S695.852,836.515,695.763,836.193Z" transform="translate(-339.353 -806.509)"/><ellipse class="l" cx="20.525" cy="3.471" rx="20.525" ry="3.471" transform="translate(315.908 51.78)"/><path class="d" d="M626.862,837.78s-16.354-.988-14.406,10.475a2.8,2.8,0,0,0,1.454,2.943s0-.851,1.681-.562a8.007,8.007,0,0,0,1.77.089,3.752,3.752,0,0,0,2.175-.9h0s4.6-1.9,6.387-9.412c0,0,1.317-1.64,1.269-2.058l-2.744,1.173a4.973,4.973,0,0,1,.2,3.65s-.089-3.574-.617-3.492c-.11,0-1.434.686-1.434.686s1.619,3.43.4,5.989c0,0,.46-4.274-.906-5.742l-1.941,1.139s1.893,3.581.611,6.5c0,0,.329-4.487-1.022-6.229l-1.756,1.372s1.777,3.533.686,5.955c0,0-.144-5.221-1.077-5.612a10.73,10.73,0,0,0-1.777,1.914s1.221,2.566.466,3.917c0,0-.466-3.478-.844-3.492a11.526,11.526,0,0,0-1.694,3.883,8.336,8.336,0,0,1,1.317-4.116,4.609,4.609,0,0,0-2.346,1.214s.24-1.633,2.744-1.77a10.387,10.387,0,0,1,1.605-1.852,10.052,10.052,0,0,0-3.979.453s1.324-1.537,4.432-.837l1.736-1.42s-3.259-.446-4.637.048c0,0,1.592-1.372,5.111-.37l1.887-1.125a16.951,16.951,0,0,0-4.432-.384s1.749-.94,4.987.076l1.372-.6s-2.058-.4-2.627-.466-.631-.226-.631-.226a7.079,7.079,0,0,1,3.828.425A16.159,16.159,0,0,0,626.862,837.78Z" transform="translate(-321.265 -807.013)"/><ellipse class="l" cx="11.573" cy="1.955" rx="11.573" ry="1.955" transform="translate(282.76 43.232)"/><path class="d" d="M670.844,802.368s-19.736-1.194-17.411,12.643a3.375,3.375,0,0,0,1.756,3.554s0-1.022,2.024-.686a9.734,9.734,0,0,0,2.14.1,4.521,4.521,0,0,0,2.628-1.084h0s5.55-2.291,7.7-11.367c0,0,1.6-1.976,1.537-2.483l-3.334,1.42a6,6,0,0,1,.247,4.4s-.11-4.315-.755-4.212c-.124,0-1.729.83-1.729.83s1.962,4.192.48,7.231c0,0,.563-5.159-1.091-6.929l-2.346,1.372s2.291,4.322.741,7.855c0,0,.4-5.413-1.235-7.546l-2.127,1.653s2.154,4.26.844,7.189c0,0-.172-6.3-1.3-6.778a12.916,12.916,0,0,0-2.14,2.312s1.475,3.094.556,4.727c0,0-.556-4.192-1.015-4.212,0,0-1.852,2.744-2.058,4.685a10.092,10.092,0,0,1,1.592-4.953,5.576,5.576,0,0,0-2.833,1.468s.288-1.969,3.293-2.14a12.9,12.9,0,0,1,1.941-2.236,12.213,12.213,0,0,0-4.8.556s1.591-1.859,5.351-1.015l2.1-1.708s-3.938-.542-5.6.055c0,0,1.921-1.64,6.174-.446l2.284-1.372a22.507,22.507,0,0,0-5.351-.46s2.106-1.139,6.023.089l1.633-.727s-2.463-.487-3.183-.562-.755-.274-.755-.274a8.527,8.527,0,0,1,4.617.514S670.912,802.588,670.844,802.368Z" transform="translate(-334.122 -795.892)"/><ellipse class="l" cx="13.974" cy="2.36" rx="13.974" ry="2.36" transform="translate(309.158 21.52)"/></g><g transform="translate(93.808 65.535)"><path class="m" d="M831.282,452.546V117H178.65V433.3a129.931,129.931,0,0,0,28.812,17.617q7.724,3.56,15.778,6.51H823.5Z" transform="translate(-178.65 -117)"/><path class="n" d="M830.673,457.079V131H180.73V438.4c8.3,6.764,18.282,12.451,28.675,17.15q7.7,3.43,15.723,6.325H822.9Z" transform="translate(-179.303 -121.396)"/><rect class="o" width="649.936" height="17.246" transform="translate(1.434 0.954)"/></g><g transform="translate(103.762 70.653)"><circle class="n" cx="4.459" cy="4.459" r="4.459"/><circle class="n" cx="4.459" cy="4.459" r="4.459" transform="translate(12.005)"/><circle class="n" cx="4.459" cy="4.459" r="4.459" transform="translate(24.01)"/></g><g transform="translate(112.68 121.637)"><rect class="d" width="107.36" height="67.462" transform="translate(148.651)"/><rect class="f" width="107.36" height="67.462"/><rect class="p" width="107.36" height="67.462" transform="translate(297.301)"/><rect class="f" width="107.36" height="67.462" transform="translate(0 96.446)"/><rect class="f" width="107.36" height="67.462" transform="translate(148.651 96.446)"/><rect class="f" width="107.36" height="67.462" transform="translate(297.301 96.446)"/><rect class="f" width="107.36" height="67.462" transform="translate(0 192.884)"/><rect class="f" width="107.36" height="67.462" transform="translate(148.651 192.884)"/><rect class="f" width="107.36" height="67.462" transform="translate(297.301 192.884)"/></g><g transform="translate(236.395 138.483)"><path class="q" d="M499.6,375.537s-19.284-35.247-16.032-40.982a78.112,78.112,0,0,0,5.646-14.036s7.121-4.871,7.121-6.86,5.639-6.592,8.609-8.6,1.482-11.463,0-12.609-3.835-5.159-3.835-5.159,2.058-5.728,0-7.45.3-3.43,0-5.159a69.222,69.222,0,0,1,0-8.019,12.928,12.928,0,0,0-7.587-5.488l-.22-.906-1.269-5.344s6.174-11.834-3.842-18.028a16.741,16.741,0,0,0-2.216-1.166,7.687,7.687,0,0,0-.055-.775,48.482,48.482,0,0,0-1.454-9.062c-.521-1.66-1.2-2.778-2.058-2.525a1.372,1.372,0,0,0-.563.322,6.258,6.258,0,0,0-1.063,1.255h0a.282.282,0,0,1-.048.075,21.515,21.515,0,0,0-2.36,6.551,37.829,37.829,0,0,0-.686,4.116h0a22.632,22.632,0,0,0-1.146,2.545c-1.214,3.149-2.634,8.6-.048,12.636,2.2,3.43,5.152,8.143,7.3,11.573l.069.11.13.213-.226.144v.528l.2,2.888,1.66,24.957a10.609,10.609,0,0,0-1.523-.322,13.837,13.837,0,0,0-2.216-.144c-1.448-5.687-5.42-10.976-6.174-16.917a15.686,15.686,0,0,1-.117-1.79c.062-3.739.995-7.491.919-11.223,0-.686,0-1.372-.069-2.058h0a5.5,5.5,0,0,0-.055-.569,16.869,16.869,0,0,0-9.172-12.78c-1.722-.858-3.588-1.427-5.262-2.367-3.869-2.168-6.346-6.078-9.858-8.76-2.614-2-6.517-3.066-9.433-2.058a43.551,43.551,0,0,0-4.589.947h0a41.4,41.4,0,0,0-10.5,4.363c-.446.268-.892.542-1.317.857a5.8,5.8,0,0,0-2.12,2.476,6.49,6.49,0,0,0-.329,2.669c0,.652,0,1.317.041,1.969-.192,10.976-12.019,19.469-12.993,30.184,0,.254-.041.508-.055.761V277.7h0v.857c.172,4.7,2.614,9.076,3.06,13.754.041.418.062.83.069,1.249a20.745,20.745,0,0,1-1.214,6.3,18.432,18.432,0,0,0-4.26,1.729c-3.595,2.312-10.084,6.3-12.451,13.94a20.418,20.418,0,0,0-.9,6.119,127.773,127.773,0,0,1-2,21.849,40.832,40.832,0,0,1-1.262,5.371,1.262,1.262,0,0,0-.041.528l-1.427,18.522-.254,3.259-.357,4.637s.1.281.254.755a21.815,21.815,0,0,1,.563,2.14,11.511,11.511,0,0,1,.185,4.8,3.307,3.307,0,0,1-1,1.763.74.74,0,0,0-.117.13c-.4.569-.768,2.264-1.084,4.72-.123.96-.24,2.058-.357,3.2-.686,7.306-1.111,18.241-1.372,27.282-.247,8.918-.336,15.963-.336,15.963a18.209,18.209,0,0,0,3.684,1.825c-.1.24-.2.487-.3.748a36.036,36.036,0,0,0-2.236,9.426c-.576,6.743,1.31,14.235,10.715,18.09a15.144,15.144,0,0,0,1.845.631c2.058.549,3.574.4,4.692-.288,0,.4.048.8.069,1.187.1,1.674.178,3.2.22,4.487.295,8.026,2.284,22.062,2.284,22.062s.686,5.735.089,7.45,0,8.6,0,8.6,2.058,3.43,0,5.159-2.669,10.29-2.058,11.463a.386.386,0,0,1,.034.13c.453,2.847-2.106,45.146-2.106,45.146s-2.422,6.476-4.349,13.2c-1.88,6.544-3.293,13.322-1.55,14.591.864.631,2.874,1.1,5.426,1.468,0,.281-.041.563-.069.851-.247,3.025-.638,6.284-1.2,7.107-.816,1.166-1.674,10.208-2.092,15.092l-.041.542a50.559,50.559,0,0,0-2.209,6.407s-6.565,16.464-4.342,20.738a3.506,3.506,0,0,0,.816,1.008h0a1.846,1.846,0,0,0,.213.192c3.162,2.531,11.086,3.06,13.96,3.176l-.11,4.075v.151h3.739v-.1c0-.515.082-2.874.206-6.03,0-.563.041-1.153.069-1.756,0-.473.048-.954.069-1.448a25.382,25.382,0,0,0,1.626-9.158,40.185,40.185,0,0,1,1.441-10.619,29.5,29.5,0,0,1,1.9-5.179s1.166-6.174-.46-10.544a7.616,7.616,0,0,0-1.372-2.374c0-.144,0-.288,0-.439v-.933a39.576,39.576,0,0,1,.878-8.795.976.976,0,0,1,0-.137c.055-.24.117-.466.178-.686l.041-.151,1.214.041c3.725.1,6.462.1,6.462.1s2.97-15.188,2.675-21.774V580.4c-.1-6.544,1.8-15.442,1.8-15.442l2.394-23.221s-1.187-4.02,0-6.86c.734-1.77,2.25-5.056,3.307-7.32.494-1.05.885-1.873,1.05-2.229l.1-.192a4.441,4.441,0,0,1-1.056-.528h0c-.967-.645-1.832-1.907,1.063-3.766,4.452-2.867,2.97-10.029,2.97-10.029a5.149,5.149,0,0,1,.233-4.871c1.544-2.291,0-10.887,0-10.887a36,36,0,0,0,3.046-7.169c1.1-3.43,3.9-20.2,5.214-28.291.432-2.655.686-4.37.686-4.37l.041.418.041.453h0l.37,3.821.048.508.686,7.224s1.372,18.989.515,26.432v.137a8.8,8.8,0,0,1-.5,2.257c-1.578,3.567-1.29,17.74-1.207,20.875v.631c0,.172-1.118,2.8-.837,4.843h0a3.108,3.108,0,0,0,.542,1.441,3.649,3.649,0,0,1,.528,2.229v.069a8.1,8.1,0,0,1-.082.988,18.835,18.835,0,0,1-1.043,3.883s-1.592,4.185-.988,6.373h0a2.016,2.016,0,0,0,.391.775,1.832,1.832,0,0,1,.226.823.293.293,0,0,0,0,.075c.556,4.617-.878,25-1.729,36.153-.343,4.4-.59,7.368-.59,7.368l-2.353,24.353.233.165c.268.192.768.521,1.441.919v.055l-.1.734c-.336,2.346-.789,5.076-1.283,7.162-.041.158-.075.309-.117.453a6.563,6.563,0,0,0-2.518,1.008c-4.994,8.87-2.785,15.9,0,17.946.789.576,1.324,2.188,1.681,4.192l.686,8.843v1.015a2.635,2.635,0,0,0,.13.81l.213,2.682.288,3.732h2.278v-4.521h.123c3.595.123,9.391.274,11.916.076h.069a4.445,4.445,0,0,0,.686-.076,1.722,1.722,0,0,0,.4-.11c1.338-.645,4.672-10.1,1.667-12.245s-3.67-8.232-3.67-8.232c-.261-.8-.521-1.55-.789-2.271v-.466a37.731,37.731,0,0,1,.357-7.862,59.8,59.8,0,0,0,.782-9.391V611.1a11.7,11.7,0,0,0,1.53-.5l.11-.048a10.778,10.778,0,0,0,2.559-1.516l8.4-37.209.885-4.329,5.042-24.621s-1.777-8.6,0-10.023c.652-.521.83-2.744.789-5.317-.069-4.5-.789-10.16-.789-10.16s2.374-3.725,3.567-6.016,0-8.307,0-8.307l2.339-13.775s2.675-16.334,9.2-30.088c4.8-10.119,1.742-37.442-1.372-51.986-.082-.377-.165-.748-.247-1.1v-.055c1.468-.727,3.265-1.605,5.186-2.524l.727-.343c2.435-1.146,5.015-2.326,7.327-3.307l.151-.062a51.168,51.168,0,0,1,5.1-1.907,8.55,8.55,0,0,1,1.564-.323C512.067,397.31,499.6,375.537,499.6,375.537Zm-92.824,46.614h1.235c-.144.268-.281.542-.418.816-.082.165-.165.322-.24.487-.453.94-.871,1.9-1.214,2.84.137-1.015.309-2.12.5-3.3C406.689,422.734,406.737,422.425,406.778,422.151Zm-3.334,17.884a.508.508,0,0,0,0-.1l-.1-.322c-.075-.22-.144-.439-.213-.686q.638-.192,1.3-.432h.089v.226c-.034.322-.075.645-.117.96h0a.684.684,0,0,1,0,.123,6.674,6.674,0,0,1-.089.755c-.062.494-.123.974-.178,1.434-.13-.432-.261-.857-.4-1.276a3.253,3.253,0,0,1-.288-.686Z" transform="translate(-386.5 -223.338)"/><path class="r" d="M532.525,266.218l-7.409,2.621-2.689-4.459c-2.058-3.43-4.912-8.122-7.018-11.532-3.718-6,1.146-15.133,1.146-15.133s.878-9.172,4.006-12,4,12,4,12c12.561,5.708,5.831,19.133,5.831,19.133l1.221,5.323Z" transform="translate(-426.537 -223.972)"/><path class="h" d="M536.378,282.954l-7.409,2.621-2.689-4.459v-.391a12.9,12.9,0,0,1,9.2-1.818Z" transform="translate(-430.39 -240.709)"/><path class="o" d="M523.56,313.392l3.711-3.142-1.859-28.277s9.6-6.572,16.711,3.711a72.173,72.173,0,0,0,0,8c.288,1.715-2,3.43,0,5.138s0,7.429,0,7.429,2.257,4,3.684,5.138,2.861,10.571,0,12.568-8.225,6.572-8.225,8.568-6.86,6.86-6.86,6.86L524.7,331.42Z" transform="translate(-429.536 -241.099)"/><path class="r" d="M401.8,562.264c-13.844-5.872-10.77-20.217-8.163-27.44a37.363,37.363,0,0,1,1.832-4.281l7.766-4.713s1.585,4.041,3.279,9.46C410.44,547.9,414.961,567.855,401.8,562.264Z" transform="translate(-388.035 -318.318)"/><path class="r" d="M426,768.032a23.324,23.324,0,0,0-2.058,5.776,41.714,41.714,0,0,0-.892,9.831c.055,2.284.247,3.78.247,3.78L407.88,798.024s.089-1.242.24-3.066c.4-4.857,1.228-13.871,2.01-15.037.542-.81.919-4.061,1.159-7.08s.336-5.666.336-5.666S430.182,760.218,426,768.032Z" transform="translate(-393.213 -393.203)"/><path class="r" d="M480.474,780.183s0,2.95-.11,6.38a65.333,65.333,0,0,1-.748,9.364,38.547,38.547,0,0,0-.35,7.834c.1,3.43.35,6.517.35,6.517s-15.744-14.886-14.139-16.066c.432-.316.858-1.585,1.249-3.272.48-2.058.912-4.8,1.235-7.135.384-2.778.624-5.015.624-5.015Z" transform="translate(-411.262 -397.746)"/><path class="h" d="M427.581,768.032a23.321,23.321,0,0,0-2.058,5.776,126.026,126.026,0,0,1-12.622-.967c.233-2.95.336-5.666.336-5.666S431.758,760.218,427.581,768.032Z" transform="translate(-394.79 -393.203)"/><path class="h" d="M481.663,780.189s0,2.95-.11,6.38c-4.912,1.255-9.961-1.255-12.4-2.744.384-2.778.624-5.015.624-5.015Z" transform="translate(-412.452 -397.753)"/><path class="s" d="M493.53,540.073c-6.284,13.72-8.856,29.992-8.856,29.992l-2.284,13.72s1.146,6,0,8.28-3.43,6-3.43,6,1.715,13.995,0,15.421,0,10,0,10L473.245,652.3l-8,37.127c-7.711,6.291-17.973-1.708-17.973-1.708l2.264-24.278s3.43-42.532,2-44.275.569-7.141.569-7.141,2-5.145.576-7.141.281-6.284.281-6.284-.569-17.425,1.146-21.424,0-28.737,0-28.737l-.686-7.7-.4-4.267-.034-.418s-.261,1.708-.686,4.356c-1.262,8.061-3.951,24.765-5.015,28.2a36.721,36.721,0,0,1-2.929,7.141s1.482,8.568,0,10.853a5.313,5.313,0,0,0-.226,4.857s1.427,7.141-2.861,10,0,4.288,0,4.288-3.142,6.86-4.281,9.707,0,6.86,0,6.86l-2.284,23.132s-2,9.707-1.715,16.279-2.573,21.705-2.573,21.705-21.993,0-25.382-2.573,5.66-27.667,5.66-27.667,2.573-43.987,2-45.126,0-9.714,2-11.422,0-5.145,0-5.145-.569-6.86,0-8.568-.089-7.429-.089-7.429-1.914-13.995-2.2-21.993-1.715-25.986-1.715-25.986,1.5-11.127,1.722-16.423a18.652,18.652,0,0,1,2.058-6.675,59.55,59.55,0,0,1,4.253-7.464s67.675-20,70.515-18.014c.755.528,1.852,4.116,2.936,9.309C495.2,502.754,498.154,529.989,493.53,540.073Z" transform="translate(-392.084 -303.55)"/><circle class="t" cx="19.709" cy="19.709" r="19.709" transform="translate(40.042 22.537)"/><path class="h" d="M496.851,488.259c-2.271,1.166-3.794,1.969-3.794,1.969s-31.988,15.14-41.085,14.283c-7.038-.686-25-.295-32.832-.1a59.564,59.564,0,0,1,4.253-7.464s67.681-20,70.521-18.008C494.669,479.478,495.767,483.052,496.851,488.259Z" transform="translate(-396.749 -303.55)"/><path class="o" d="M435.944,328.495s-18.255,2.881-22.563,5.708-12.842,8.287-12.842,20-2,23.708-3.142,27.132,17.994,31.131,17.994,31.131l-6.86,41.99s27.44-.858,36.578,0,41.112-14.283,41.112-14.283,18.851-10,22.851-10.29-8-21.993-8-21.993-18.57-35.124-15.428-40.838a78.928,78.928,0,0,0,5.447-13.995l-3.43-29.128s-5.138-1.715-9.426,1.427-18.851,1.427-18.851,1.427Z" transform="translate(-389.906 -254.775)"/><path class="h" d="M402.816,398.438l-7.162,2-1.983,26.878s2.573,7.141,0,9.426-3.142,51.128-3.142,51.128,8.287,6,17.994,1.427c0,0-1.427-5.426,2.861-25.135s4.281-29.7,4.281-29.7,0-24.566,2-28.565,0-13.995,0-13.995-4-5.426-3.718-7.423S402.816,398.438,402.816,398.438Z" transform="translate(-387.766 -273.878)"/><path class="h" d="M407.536,535.32a18.241,18.241,0,0,1-12.876-.466,37.359,37.359,0,0,1,1.832-4.281l7.766-4.713S405.869,529.9,407.536,535.32Z" transform="translate(-389.062 -318.328)"/><path class="o" d="M402.19,398.426l-7.141,2-2,26.878s2.573,7.141,0,9.426-3.142,51.128-3.142,51.128,8.294,5.989,17.994,1.4c0,0-1.427-5.426,2.854-25.135s4.288-29.7,4.288-29.7,0-24.566,2-28.565,0-13.995,0-13.995-4-5.426-3.711-7.423S402.19,398.426,402.19,398.426Z" transform="translate(-387.571 -273.866)"/><path class="h" d="M507.731,411.15s-3.711,31.988-14.571,37.991C493.16,449.141,517.438,442.288,507.731,411.15Z" transform="translate(-419.991 -282.31)"/><path class="h" d="M434.88,415.32s13.418,6.565,10.29,11.134S434.88,415.32,434.88,415.32Z" transform="translate(-401.691 -283.619)"/><path class="h" d="M434.88,434.47s8.568,8.856,6.86,12S434.88,434.47,434.88,434.47Z" transform="translate(-401.691 -289.632)"/><path class="h" d="M535.63,327.47s3.361,5.708,3.684,9.426S535.63,327.47,535.63,327.47Z" transform="translate(-433.326 -256.035)"/><path class="h" d="M535.63,315.938s1.688-1.434,6,0S535.63,315.938,535.63,315.938Z" transform="translate(-433.326 -252.214)"/><path class="h" d="M500.2,556.786a39.72,39.72,0,0,1-20.889-2.675l-3.6,9.22-.4-4.267c.59-3.581,1.736-7.416,4-8.383C479.309,550.68,487.24,557,500.2,556.786Z" transform="translate(-414.386 -326.121)"/><path class="h" d="M426.18,577.07s17.569,3.643,22.494,3Z" transform="translate(-398.959 -334.407)"/><path class="h" d="M428.84,583.767s7.5-.322,11.244,1.18Z" transform="translate(-399.795 -336.501)"/><path class="h" d="M430.09,588.31a67.226,67.226,0,0,0,10.386,1.372Z" transform="translate(-400.187 -337.937)"/><path class="h" d="M429.46,644.664c.322-.213,15-3.643,16.821-1.18Z" transform="translate(-399.989 -354.983)"/><path class="h" d="M429.46,651.864s12.746-1.5,13.068,0S429.46,651.864,429.46,651.864Z" transform="translate(-399.989 -357.683)"/><path class="h" d="M429.46,657.077s13.6-2.813,15.209-2.127S429.46,657.077,429.46,657.077Z" transform="translate(-399.989 -358.828)"/><path class="h" d="M423.341,795.381,407.92,805.987s.089-1.242.24-3.066a41.573,41.573,0,0,1,7.9-12.89c3.478-.906,5.673-.069,7.038,1.571C423.149,793.879,423.341,795.381,423.341,795.381Z" transform="translate(-393.226 -401.159)"/><path class="u" d="M421.839,805.1a38.272,38.272,0,0,0-3.217,15.778,24.469,24.469,0,0,1-3.265,12.7,12.512,12.512,0,0,1-1.084,1.55s-10.715-.089-14.468-3.2A3.711,3.711,0,0,1,398.8,830.7c-2.147-4.281,4.178-20.669,4.178-20.669,3.32-12.636,10.064-19.387,10.064-19.387C425.05,787.534,421.839,805.1,421.839,805.1Z" transform="translate(-390.221 -401.352)"/><path class="h" d="M416.022,842.621a12.509,12.509,0,0,1-1.084,1.55s-10.715-.089-14.468-3.2c1.845-6.105,7.731-24.58,10.489-21.438C413.552,822.487,415.356,836.68,416.022,842.621Z" transform="translate(-390.887 -410.428)"/><path class="u" d="M420.658,820.679l-.748,27.674H423.5s.583-24.278,2.188-27.674S420.658,820.679,420.658,820.679Z" transform="translate(-396.991 -410.425)"/><path class="h" d="M479.616,815.794s-15.744-14.886-14.139-16.066c.432-.316.858-1.585,1.249-3.272,3.025-.528,8.232.734,12.54,12.821C479.369,812.707,479.616,815.794,479.616,815.794Z" transform="translate(-411.262 -403.262)"/><path class="u" d="M480.125,832.595a1.6,1.6,0,0,1-.377.11c-1.852.322-8.678.137-12.5,0a2.7,2.7,0,0,1-2.614-2.7c0-1.029,0-2.284-.082-3.622-.178-4.226-.686-9.254-2.2-10.386-2.682-2.058-4.8-9.042,0-17.884,0,0,9.206-7.032,15.847,14.1,0,0,.645,6.03,3.533,8.17S481.415,831.984,480.125,832.595Z" transform="translate(-409.418 -403.462)"/><path class="h" d="M482.045,840.852c-1.852.322-8.678.137-12.5,0a2.7,2.7,0,0,1-2.614-2.7c0-1.029,0-2.284-.082-3.622,1.159-5.118,2.826-10.386,4.974-11.587C471.837,822.941,478.334,822.207,482.045,840.852Z" transform="translate(-411.73 -411.61)"/><path class="u" d="M423.46,799.682l1.729,23.029h2.2V797.72Z" transform="translate(-369.362 -388.968)"/><path class="h" d="M455.289,239.116a39.39,39.39,0,0,0-17.576,5.646,7.3,7.3,0,0,0-3.313,3.327,11.028,11.028,0,0,0-.268,4.116c.185,11.813-12.986,20.752-12.574,32.558.165,4.685,2.518,9.048,2.95,13.72.72,7.793-3.89,14.962-8.308,21.417a17.74,17.74,0,0,0,12.52-4.15,94.936,94.936,0,0,1,1.749,47.849h6.318a4.8,4.8,0,0,1,1.845.226,4.638,4.638,0,0,1,1.461,1.091c5.907,5.879,9.865,14.571,7.608,22.6l13.446-5.042a39.942,39.942,0,0,0,9.282-4.425,13.4,13.4,0,0,0,5.735-8.266c.364-2.058.247-4.514,1.941-5.708a10.564,10.564,0,0,1,2.648-.981c3.691-1.3,5.323-5.57,6.078-9.412a54.2,54.2,0,0,0,.858-14.317c-.6-8.026-2.97-16.176-1.015-24.01,1.1-4.4,3.56-8.493,3.759-13.034.322-7.484-5.529-13.933-6.4-21.376-.611-5.186,1.262-10.434.652-15.62a16.78,16.78,0,0,0-8.829-12.739c-1.653-.851-3.43-1.42-5.063-2.36-3.725-2.161-6.105-6.051-9.487-8.726s-9.014-3.684-11.559-.206Z" transform="translate(-395.826 -228.276)"/><path class="s" d="M455.289,237.86a39.391,39.391,0,0,0-17.576,5.646,7.3,7.3,0,0,0-3.313,3.327,11.028,11.028,0,0,0-.268,4.116c.185,11.813-12.986,20.752-12.574,32.565.165,4.679,2.518,9.042,2.95,13.72.72,7.793-3.89,14.962-8.308,21.424a17.836,17.836,0,0,0,12.52-4.15,94.9,94.9,0,0,1,1.749,47.835h6.318a4.8,4.8,0,0,1,1.845.233,4.514,4.514,0,0,1,1.461,1.084c5.906,5.886,9.865,14.571,7.608,22.6l13.446-5.042a39.944,39.944,0,0,0,9.282-4.425,13.4,13.4,0,0,0,5.735-8.266c.364-2.058.247-4.514,1.941-5.708a10.565,10.565,0,0,1,2.648-.981c3.691-1.3,5.323-5.57,6.078-9.412a54.2,54.2,0,0,0,.878-14.331c-.6-8.026-2.97-16.176-1.015-24.01,1.1-4.4,3.56-8.493,3.759-13.034.322-7.484-5.529-13.933-6.4-21.376-.611-5.186,1.262-10.427.652-15.62a16.793,16.793,0,0,0-8.829-12.739c-1.653-.851-3.43-1.42-5.063-2.353-3.725-2.168-6.105-6.057-9.487-8.733s-9.014-3.684-11.559-.206Z" transform="translate(-395.826 -227.877)"/><g class="v" transform="translate(20.374 20.218)"><path d="M442.3,252.81a7.65,7.65,0,0,0-.041.8C442.281,253.345,442.294,253.078,442.3,252.81Z" transform="translate(-424.383 -252.81)"/><path d="M514.973,287.848c.247-3.636,1.056-7.285.755-10.908C515.5,280.576,514.692,284.225,514.973,287.848Z" transform="translate(-447.196 -260.387)"/><path d="M426.956,313.478c-.4-4.253-2.38-8.232-2.847-12.478a15.637,15.637,0,0,0-.1,2.346c.165,4.631,2.463,8.959,2.929,13.569A18.519,18.519,0,0,0,426.956,313.478Z" transform="translate(-418.649 -267.941)"/><path d="M518.657,338.385a29.417,29.417,0,0,0-.686,8.52,25.826,25.826,0,0,1,.686-4.946c1.1-4.4,3.56-8.493,3.759-13.034a14.131,14.131,0,0,0-.11-2.415C521.772,330.592,519.638,334.392,518.657,338.385Z" transform="translate(-448.136 -275.951)"/><path d="M428.72,344.36a17.837,17.837,0,0,1-10.125,4.116c-.782,1.221-1.592,2.415-2.394,3.595a17.836,17.836,0,0,0,12.52-4.15,94.668,94.668,0,0,1,3.993,25.691A94.881,94.881,0,0,0,428.72,344.36Z" transform="translate(-416.2 -281.556)"/><path d="M501.28,395.713c-.755,3.842-2.387,8.109-6.078,9.405a10.291,10.291,0,0,0-2.648.988c-1.694,1.194-1.578,3.663-1.941,5.708a13.233,13.233,0,0,1-5.735,8.232,41.242,41.242,0,0,1-9.282,4.432l-12.828,4.8a17.7,17.7,0,0,1-.617,3.807l13.446-5.042a39.941,39.941,0,0,0,9.282-4.425,13.4,13.4,0,0,0,5.735-8.266c.364-2.058.247-4.514,1.941-5.708a10.563,10.563,0,0,1,2.648-.981c3.691-1.3,5.323-5.57,6.078-9.412a53.8,53.8,0,0,0,.967-12.142A53.714,53.714,0,0,1,501.28,395.713Z" transform="translate(-430.628 -294.979)"/><path d="M446.667,415.389a4.536,4.536,0,0,0-1.461-1.091,4.905,4.905,0,0,0-1.845-.233h-5.6c-.22,1.194-.453,2.387-.686,3.574h6.318a4.8,4.8,0,0,1,1.845.233,4.514,4.514,0,0,1,1.461,1.084c4.322,4.308,7.594,10.112,8.157,16.066C455.544,427.9,451.853,420.575,446.667,415.389Z" transform="translate(-422.753 -303.44)"/></g><path class="h" d="M405.37,449.645s5.1-2.14,6.243,0S405.37,449.645,405.37,449.645Z" transform="translate(-392.425 -294.098)"/><path class="h" d="M408,454.995s5.1-2.14,6.25,0S408,454.995,408,454.995Z" transform="translate(-393.251 -295.778)"/></g><g transform="translate(492.181 5.894)"><path class="w" d="M858.457,51.665s-26.1-1.571-23.022,16.718a4.461,4.461,0,0,0,2.319,4.7s.048-1.372,2.675-.9a12.012,12.012,0,0,0,2.833.137,5.879,5.879,0,0,0,3.457-1.434h0s7.333-3.025,10.187-15.017c0,0,2.113-2.621,2.058-3.293l-4.4,1.887s1.5,3.176.316,5.817c0,0-.137-5.708-.988-5.57-.172,0-2.284,1.1-2.284,1.1s2.586,5.536.631,9.563c0,0,.741-6.819-1.441-9.158l-3.114,1.845s3.025,5.714.974,10.379c0,0,.528-7.155-1.626-9.94l-2.813,2.188s2.847,5.6,1.132,9.474c0,0-.226-8.335-1.722-8.959a16.968,16.968,0,0,0-2.826,3.06s1.941,4.116.734,6.243c0,0-.741-5.543-1.372-5.57,0,0-2.449,3.677-2.7,6.174a13.384,13.384,0,0,1,2.106-6.551,7.319,7.319,0,0,0-3.746,1.948s.377-2.6,4.349-2.833c0,0,2.024-2.785,2.566-2.957,0,0-3.951-.329-6.346.734,0,0,2.106-2.456,7.073-1.372l2.744-2.264s-5.2-.686-7.409.075c0,0,2.538-2.168,8.157-.59l3.018-1.8a27.1,27.1,0,0,0-7.073-.611s2.785-1.5,7.958.123l2.161-.967s-3.252-.638-4.2-.741-1-.364-1-.364a11.223,11.223,0,0,1,6.1.686S858.532,51.953,858.457,51.665Z" transform="translate(-783.169 -36.833)"/><path class="w" d="M808.964,30.06s-21.952,14.207-8.637,27.111a4.464,4.464,0,0,0,4.651,2.415s-.768-1.125,1.626-2.312a11.908,11.908,0,0,0,2.367-1.571,5.906,5.906,0,0,0,1.941-3.2h0s4.116-6.791-.686-18.138c0,0,.151-3.361-.316-3.855l-2.428,4.116s3.094,1.667,3.7,4.493c0,0-3.492-4.507-4.116-3.9-.123.123-1.194,2.243-1.194,2.243s5.371,2.922,6.174,7.32c0,0-3.43-5.934-6.592-6.517l-1.427,3.293s5.831,2.813,6.942,7.786c0,0-3.821-6.078-7.2-7.045l-.96,3.43s5.625,2.854,6.524,7c0,0-5.118-6.572-6.7-6.174a17.385,17.385,0,0,0-.466,4.116s3.993,2.14,4.294,4.6c0,0-3.883-4.027-4.384-3.691,0,0,.206,4.411,1.489,6.593a13.4,13.4,0,0,1-2.181-6.524,7.341,7.341,0,0,0-1.866,3.787s-1.235-2.319,1.832-4.857c0,0,0-3.43.309-3.9,0,0-3.375,2.058-4.679,4.349,0,0,.247-3.224,4.9-5.269l.892-3.464s-4.61,2.511-5.92,4.452c0,0,.761-3.252,6.215-5.31l1.372-3.245a27.917,27.917,0,0,0-6.064,3.7s1.372-2.868,6.49-4.617l1.166-2.058s-3,1.413-3.821,1.893-1.022.3-1.022.3a11.243,11.243,0,0,1,5.317-3.066S809.2,30.252,808.964,30.06Z" transform="translate(-770.879 -30.06)"/><path class="w" d="M764.039,54.162s-13.123,22.638,4.6,28.078a4.424,4.424,0,0,0,5.241,0s-1.187-.645.4-2.792a12.01,12.01,0,0,0,1.372-2.47,5.927,5.927,0,0,0,.281-3.739h0s.583-7.917-8.849-15.854c0,0-1.372-3.06-2.058-3.286l-.295,4.8s3.512.082,5.344,2.326c0,0-5.159-2.435-5.419-1.619-.055.165-.048,2.538-.048,2.538s6.167.185,8.911,3.739c0,0-5.762-3.725-8.829-2.819l.22,3.581s6.469-.137,9.714,3.794c0,0-6.174-3.684-9.6-3.012l.686,3.492s6.311,0,8.987,3.279c0,0-7.546-3.54-8.774-2.49a16.954,16.954,0,0,0,1.461,3.9s4.528.1,5.913,2.147c0,0-5.289-1.832-5.584-1.3,0,0,2.188,3.835,4.322,5.193a13.4,13.4,0,0,1-4.9-4.8,7.347,7.347,0,0,0,.055,4.219s-2.154-1.5-.576-5.159c0,0-1.578-3.06-1.489-3.615,0,0-2.058,3.382-2.2,6,0,0-1.249-2.984,1.976-6.915l-.775-3.5s-2.97,4.329-3.258,6.654c0,0-.8-3.245,3.135-7.546l-.261-3.505a27.387,27.387,0,0,0-3.718,6.051s-.1-3.169,3.684-7.059l.1-2.367s-2.058,2.614-2.545,3.43-.775.7-.775.7a11.291,11.291,0,0,1,3.348-5.152S764.327,54.223,764.039,54.162Z" transform="translate(-759.362 -37.608)"/></g><path class="d" d="M917.292,395.112a9.817,9.817,0,1,0,9.817,9.817,9.817,9.817,0,0,0-9.817-9.817Zm-28.7-77.032V327.9h9.817l17.672,35.8-7.388,12.026a9.438,9.438,0,0,0-1.228,4.665c0,6.572,4.493,9.817,10.585,9.817h57.4V380.76h-56.2a1.159,1.159,0,0,1-1.228-1.228,6.177,6.177,0,0,1,.521-1.221l4.9-7.745h36.571a9.6,9.6,0,0,0,8.589-5.152l17.678-30.4a5.7,5.7,0,0,0,.494-2.456,4.72,4.72,0,0,0-4.912-4.665H909.211l-4.665-9.817Zm77.032,77.032a9.817,9.817,0,1,0,9.824,9.819,9.817,9.817,0,0,0-9.824-9.819Z" transform="translate(-307.758 -114.603)"/><path class="n" d="M930.308,332.442h-8.232V324.21H915.9v8.232H907.67v6.174H915.9v8.232h6.174v-8.232h8.232Z" transform="translate(-285.006 -101.806)"/></g></svg>
