<svg xmlns="http://www.w3.org/2000/svg" viewBox="0 0 64 64"><path fill="#1a4d7e" d="M43.49,20.41a3.75,3.75,0,0,1-.24-.44,3,3,0,0,1-.16-.36c0-.07-.05-.14-.08-.22s-.08-.24-.11-.36-.07-.3-.1-.45a5.54,5.54,0,0,1-.07-.57l0-.58a3.3,3.3,0,0,1-.89,2.51A3.35,3.35,0,0,1,36,17.65V17a5.29,5.29,0,0,1-.1,1.06,2,2,0,0,1,0,.26,1.89,1.89,0,0,1-.09.34,2.67,2.67,0,0,1-.11.34,4.8,4.8,0,0,1-.27.66.47.47,0,0,0-.05.1l-.17.3-.09.14a3.62,3.62,0,0,1-.22.32,5.13,5.13,0,0,1-.36-.65c-.05-.1-.09-.2-.13-.3A5.16,5.16,0,0,1,34,18.19a4.75,4.75,0,0,1,0-.54V17a4,4,0,0,1-8,0v.65a5.23,5.23,0,0,1-.37,1.94c0,.09-.07.19-.12.28a4.63,4.63,0,0,1-.36.65,3.62,3.62,0,0,1-.22-.32l-.09-.14-.17-.3-.05-.1a4.8,4.8,0,0,1-.27-.66,2.67,2.67,0,0,1-.11-.34,1.89,1.89,0,0,1-.09-.34,2,2,0,0,1,0-.26A5.29,5.29,0,0,1,24,17v.65A3.35,3.35,0,0,1,20.65,21a3.65,3.65,0,0,1-.74-.08l-.22-.06a2.34,2.34,0,0,1-.61-.26l-1.45,1.45a5.14,5.14,0,0,0,1.82.81l.23.05a3.93,3.93,0,0,0,.48.06,4,4,0,0,0,.49,0,4.75,4.75,0,0,0,.54,0,4,4,0,0,0,.5-.07,5.2,5.2,0,0,0,1.95-.82c.07,0,.14-.1.21-.15a2.43,2.43,0,0,0,.25-.2,3.64,3.64,0,0,0,.45-.43c.1-.11.2-.22.29-.34a3.81,3.81,0,0,0,.29-.41l0,0,.06.07a3.51,3.51,0,0,0,.29.36,6.12,6.12,0,0,0,.73.71c.14.11.27.21.41.3a6,6,0,0,0,6.72,0c.14-.09.27-.19.41-.3A6.12,6.12,0,0,0,34.5,21a3.51,3.51,0,0,0,.29-.36l.06-.07a5.35,5.35,0,0,0,3.46,2.37,4,4,0,0,0,.5.07,4.75,4.75,0,0,0,.54,0,5.37,5.37,0,0,0,3.91-1.7,4.7,4.7,0,0,0,.45-.55A4,4,0,0,1,43.49,20.41ZM35,42a1,1,0,0,1,1,.88L36.13,44H38V42Zm9.08-13.38A1,1,0,0,1,45,28H43a5,5,0,0,0-5,5v3h1a1,1,0,0,0,1-1V33a3,3,0,0,1,3-3h1.58l-.29-.29A1,1,0,0,1,44.08,28.62Zm7.39-8.2a1,1,0,0,0-1,0,3.28,3.28,0,0,1-1.8.54h-.58a3.35,3.35,0,0,1-3.34-3.13l0-.58a1,1,0,0,0-1.07-.93,1,1,0,0,0-.93,1v.06a3.3,3.3,0,0,1-.89,2.51A3.35,3.35,0,0,1,36,17.65V17a1,1,0,0,0-2,0,4,4,0,0,1-8,0,1,1,0,0,0-2,0v.65A3.35,3.35,0,0,1,20.65,21a3.65,3.65,0,0,1-.74-.08l-.22-.06a2.34,2.34,0,0,1-.61-.26,2.27,2.27,0,0,1-.44-.27l-.16-.13a3.45,3.45,0,0,1-.28-.26,3.3,3.3,0,0,1-.89-2.51v-.06a1,1,0,0,0-.93-1,1,1,0,0,0-1.07.93l0,.58A3.35,3.35,0,0,1,11.93,21h-.58a3.34,3.34,0,0,1-1.81-.54l0,0a1,1,0,0,0-1,0A1,1,0,0,0,8,21.3V37a6.84,6.84,0,0,0,1.3,4l.19.26c.18.22.38.45.59.67l.16.14a5.13,5.13,0,0,0,.6.5l.18.13a6.19,6.19,0,0,0,.81.48l.13.07a5.56,5.56,0,0,0,.71.29,1,1,0,0,0,.23.08,6.38,6.38,0,0,0,.89.22l.22,0A6.6,6.6,0,0,0,15,44H39a1,1,0,0,0,1-1V33a3,3,0,0,1,3-3h8a1,1,0,0,0,.71-.29,1,1,0,0,0,.21-.32.57.57,0,0,0,0-.14A.69.69,0,0,0,52,29V21.3A1,1,0,0,0,51.47,20.42ZM43,28a5,5,0,0,0-5,5v9H15a5.51,5.51,0,0,1-.71-.06l-.18,0a4.27,4.27,0,0,1-.64-.15h0l-.13,0a2.92,2.92,0,0,1-.54-.22l-.11-.06-.47-.27L12,41l-.41-.35-.08-.08a5.49,5.49,0,0,1-.45-.5l-.78.61.7-.72A4.93,4.93,0,0,1,10,37V22.83h.07a1.22,1.22,0,0,0,.26.06l.25,0,.28,0h0l.46,0h.58a5.19,5.19,0,0,0,2.22-.49,2.7,2.7,0,0,0,.34-.17A5.07,5.07,0,0,0,15,22l.41-.33a4.89,4.89,0,0,0,.84-.92,4.7,4.7,0,0,0,.45.55,3.34,3.34,0,0,0,.33.32,1.64,1.64,0,0,0,.33.26l.23.17a5.14,5.14,0,0,0,1.82.81l.23.05a3.93,3.93,0,0,0,.48.06,4,4,0,0,0,.49,0,4.75,4.75,0,0,0,.54,0,4,4,0,0,0,.5-.07,5.2,5.2,0,0,0,1.95-.82c.07,0,.14-.1.21-.15a2.43,2.43,0,0,0,.25-.2,3.64,3.64,0,0,0,.45-.43c.1-.11.2-.22.29-.34a3.81,3.81,0,0,0,.29-.41l0,0,.06.07a3.51,3.51,0,0,0,.29.36,6.12,6.12,0,0,0,.73.71c.14.11.27.21.41.3a6,6,0,0,0,6.72,0c.14-.09.27-.19.41-.3A6.12,6.12,0,0,0,34.5,21a3.51,3.51,0,0,0,.29-.36l.06-.07a5.35,5.35,0,0,0,3.46,2.37,4,4,0,0,0,.5.07,4.75,4.75,0,0,0,.54,0,5.37,5.37,0,0,0,3.91-1.7,4.7,4.7,0,0,0,.45-.55c.09.13.19.25.29.37l.23.24a.61.61,0,0,0,.16.16,1.17,1.17,0,0,0,.16.15L45,22a3.88,3.88,0,0,0,.48.3l.41.2a5.19,5.19,0,0,0,2.19.48h.58l.46,0a5.39,5.39,0,0,0,.56-.08,1.22,1.22,0,0,0,.26-.06H50V28Zm.49-7.59a3.75,3.75,0,0,1-.24-.44,3,3,0,0,1-.16-.36c0-.07-.05-.14-.08-.22s-.08-.24-.11-.36-.07-.3-.1-.45a5.54,5.54,0,0,1-.07-.57l0-.58a3.3,3.3,0,0,1-.89,2.51A3.35,3.35,0,0,1,36,17.65V17a5.29,5.29,0,0,1-.1,1.06,2,2,0,0,1,0,.26,1.89,1.89,0,0,1-.09.34,2.67,2.67,0,0,1-.11.34,4.8,4.8,0,0,1-.27.66.47.47,0,0,0-.05.1l-.17.3-.09.14a1.66,1.66,0,0,1-.22.32,5.13,5.13,0,0,1-.36-.65c-.05-.1-.09-.2-.13-.3A5.16,5.16,0,0,1,34,18.19a4.75,4.75,0,0,1,0-.54V17a4,4,0,0,1-8,0v.65a5.23,5.23,0,0,1-.37,1.94c0,.09-.07.19-.12.28a4.63,4.63,0,0,1-.36.65,1.66,1.66,0,0,1-.22-.32l-.09-.14-.17-.3-.05-.1a4.8,4.8,0,0,1-.27-.66,2.67,2.67,0,0,1-.11-.34,1.89,1.89,0,0,1-.09-.34,2,2,0,0,1,0-.26A5.29,5.29,0,0,1,24,17v.65A3.35,3.35,0,0,1,20.65,21a3.65,3.65,0,0,1-.74-.08l-.22-.06a2.34,2.34,0,0,1-.61-.26l-1.45,1.45a5.14,5.14,0,0,0,1.82.81l.23.05a3.93,3.93,0,0,0,.48.06,4,4,0,0,0,.49,0,4.75,4.75,0,0,0,.54,0,4,4,0,0,0,.5-.07,5.2,5.2,0,0,0,1.95-.82c.07,0,.14-.1.21-.15a2.43,2.43,0,0,0,.25-.2,3.64,3.64,0,0,0,.45-.43c.1-.11.2-.22.29-.34a3.81,3.81,0,0,0,.29-.41l0,0,.06.07a3.51,3.51,0,0,0,.29.36,6.12,6.12,0,0,0,.73.71c.14.11.27.21.41.3a6,6,0,0,0,6.72,0c.14-.09.27-.19.41-.3A6.12,6.12,0,0,0,34.5,21a3.51,3.51,0,0,0,.29-.36l.06-.07a5.35,5.35,0,0,0,3.46,2.37,4,4,0,0,0,.5.07,4.75,4.75,0,0,0,.54,0,5.37,5.37,0,0,0,3.91-1.7,4.7,4.7,0,0,0,.45-.55A4,4,0,0,1,43.49,20.41Z"/><path fill="#1a4d7e" d="M37,50.88,36.88,50l-.75-6L36,42.88A1,1,0,0,0,35,42H25a1,1,0,0,0-1,.88L23.87,44l-.75,6-.11.88a1,1,0,0,0,.24.78A1,1,0,0,0,24,52H36a1,1,0,0,0,.41-.09.84.84,0,0,0,.34-.25,1.06,1.06,0,0,0,.17-.26A.92.92,0,0,0,37,50.88ZM25.13,50l.75-6h8.24l.75,6Z"/><path fill="#1a4d7e" d="M40 51a1 1 0 0 1-1 1H21a1 1 0 0 1 0-2H39A1 1 0 0 1 40 51zM39 36H9a1 1 0 0 1 0-2H39a1 1 0 0 1 0 2z"/><circle cx="30" cy="39" r="1" fill="#00aeee"/><path fill="#00aeee" d="M11.93,23h-.58A5.36,5.36,0,0,1,6,17.65v-.22a5.43,5.43,0,0,1,.1-1,.52.52,0,0,1,0-.11L8.18,9.55A5,5,0,0,1,13,6h4a1,1,0,0,1,.73.32,1,1,0,0,1,.27.75L17.27,18A5.36,5.36,0,0,1,11.93,23ZM8.05,16.81a4.69,4.69,0,0,0-.05.62v.22A3.37,3.37,0,0,0,11.35,21h.58a3.35,3.35,0,0,0,3.34-3.13L15.93,8H13a3,3,0,0,0-2.86,2.13Z"/><path fill="#00aeee" d="M20.65,23a5.36,5.36,0,0,1-5.34-5.71L16,6.93A1,1,0,0,1,17,6h8a1,1,0,0,1,1,1V17.65A5.36,5.36,0,0,1,20.65,23ZM17.93,8l-.62,9.43a3.3,3.3,0,0,0,.89,2.51A3.35,3.35,0,0,0,24,17.65V8Z"/><path fill="#00aeee" d="M35,6H25a1,1,0,0,0-1,1V17a5.29,5.29,0,0,0,.1,1.06,2,2,0,0,0,0,.26,1.89,1.89,0,0,0,.09.34,2.67,2.67,0,0,0,.11.34,4.8,4.8,0,0,0,.27.66l.05.1.17.3.09.14a3.62,3.62,0,0,0,.22.32h0l.06.07a3.51,3.51,0,0,0,.29.36,6.12,6.12,0,0,0,.73.71c.14.11.27.21.41.3a6,6,0,0,0,6.72,0c.14-.09.27-.19.41-.3A6.12,6.12,0,0,0,34.5,21a3.51,3.51,0,0,0,.29-.36l.06-.07h0a3.62,3.62,0,0,0,.22-.32l.09-.14.17-.3a.47.47,0,0,1,.05-.1,4.8,4.8,0,0,0,.27-.66,2.67,2.67,0,0,0,.11-.34,1.89,1.89,0,0,0,.09-.34,2,2,0,0,0,0-.26A5.29,5.29,0,0,0,36,17V7A1,1,0,0,0,35,6ZM30,21a4,4,0,0,1-4-4V8h8v9A4,4,0,0,1,30,21Z"/><path fill="#00aeee" d="M44.07,8,44,6.93A1,1,0,0,0,43,6H35a1,1,0,0,0-1,1V17.65a4.75,4.75,0,0,0,0,.54,5.16,5.16,0,0,0,.33,1.38c0,.1.08.2.13.3a5.13,5.13,0,0,0,.36.65h0a5.35,5.35,0,0,0,3.46,2.37,4,4,0,0,0,.5.07,4.75,4.75,0,0,0,.54,0,5.37,5.37,0,0,0,3.91-1.7,4.7,4.7,0,0,0,.45-.55,5.39,5.39,0,0,0,1-3.46ZM41.8,19.94A3.35,3.35,0,0,1,36,17.65V8h6.07l.53,8.11.09,1.26v.06A3.3,3.3,0,0,1,41.8,19.94Z"/><path fill="#00aeee" d="M53.9,16.4a.52.52,0,0,0,0-.11L51.82,9.55A5,5,0,0,0,47,6H43a1,1,0,0,0-.73.32,1,1,0,0,0-.27.75l.06.93.54,8.11.09,1.26v.06l0,.58a5.54,5.54,0,0,0,.07.57,3.63,3.63,0,0,0,.1.45c0,.12.07.24.11.36s.05.15.08.22a3,3,0,0,0,.16.36,3.75,3.75,0,0,0,.24.44,4,4,0,0,0,.22.34c.09.13.19.25.29.37l.23.24a.61.61,0,0,0,.16.16,1.17,1.17,0,0,0,.16.15L45,22a3.88,3.88,0,0,0,.48.3l.41.2a5.19,5.19,0,0,0,2.19.48h.58l.46,0a5.39,5.39,0,0,0,.56-.08,1.22,1.22,0,0,0,.26-.06H50a5.34,5.34,0,0,0,1.54-.69,5.4,5.4,0,0,0,.46-.33,5.32,5.32,0,0,0,2-4.16v-.22A5.43,5.43,0,0,0,53.9,16.4ZM52,17.65a3.33,3.33,0,0,1-1.55,2.81,3.28,3.28,0,0,1-1.8.54h-.58a3.35,3.35,0,0,1-3.34-3.13l0-.58L44.07,8h3a3,3,0,0,1,2.86,2.13L52,16.81a4.69,4.69,0,0,1,0,.62Z"/><path fill="#1a4d7e" d="M57.5,30.82A5,5,0,0,0,53,28H43a5,5,0,0,0-5,5V53a5,5,0,0,0,5,5H53a5,5,0,0,0,5-5V33A5,5,0,0,0,57.5,30.82ZM56,53a3,3,0,0,1-3,3H43a3,3,0,0,1-3-3V33a3,3,0,0,1,3-3H53a3,3,0,0,1,2.94,2.38A3.18,3.18,0,0,1,56,33ZM44.08,28.62A1,1,0,0,1,45,28H43a5,5,0,0,0-5,5V50h.32L40,48.32V33a3,3,0,0,1,3-3h1.58l-.29-.29A1,1,0,0,1,44.08,28.62Z"/><circle cx="48" cy="53" r="1" fill="#00aeee"/><path fill="#1a4d7e" d="M50,31H46a1,1,0,0,1-.71-.29l-1-1a1,1,0,0,1-.21-1.09A1,1,0,0,1,45,28h6a1,1,0,0,1,.92.62,1,1,0,0,1-.21,1.09l-1,1A1,1,0,0,1,50,31Z"/><path fill="#00aeee" d="M50,49H46a3,3,0,0,1-3-3V41a1,1,0,0,1,1-1h8a1,1,0,0,1,1,1v5A3,3,0,0,1,50,49Zm-5-7v4a1,1,0,0,0,1,1h4a1,1,0,0,0,1-1V42Z"/><path fill="#00aeee" d="M50,41.87H46a.87.87,0,0,1-.87-.87V40a2.87,2.87,0,0,1,5.74,0v1A.87.87,0,0,1,50,41.87Zm-3.13-1.74h2.26V40a1.13,1.13,0,0,0-2.26,0Z"/><path fill="#00aeee" d="M36.32 52l-7 7A17.2 17.2 0 0 1 5 34.64l3-3V37a6.84 6.84 0 0 0 1.3 4l.19.26c.18.22.38.45.59.67l.16.14a5.13 5.13 0 0 0 .6.5l.18.13a6.19 6.19 0 0 0 .81.48l.13.07a5.56 5.56 0 0 0 .71.29 1 1 0 0 0 .23.08 6.38 6.38 0 0 0 .89.22l.22 0A6.6 6.6 0 0 0 15 44h8.87l-.75 6H21a1 1 0 0 0 0 2zM64 17.2a17.14 17.14 0 0 1-5 12.16L57.5 30.82A5 5 0 0 0 53 28H52V21.81a5.32 5.32 0 0 0 2-4.16v-.22a5.43 5.43 0 0 0-.1-1 .52.52 0 0 0 0-.11L51.82 9.55A5 5 0 0 0 47 6H33.68l1-1A17.2 17.2 0 0 1 64 17.2z" opacity=".3"/><polygon fill="#00aeee" points="38 44 38 50 36.88 50 36.13 44 38 44" opacity=".3"/></svg>
