<svg width="280" height="180" viewBox="0 0 280 180" xmlns="http://www.w3.org/2000/svg">
  <g fill="none" fill-rule="evenodd">
    <path d="M234.2986 167.0634c-3.0912-1.888-6.1832-3.776-9.2744-5.664-.38-.2312-.768-.4704-1.044-.8192-.3456-.436-.4816-.996-.6152-1.536-1.5952-6.4744-4.232-12.944-9.1072-17.4928-4.8752-4.5488-12.384-6.7368-18.4352-3.936 11.5504 3.0384 20.1784 14.752 19.6536 26.6832 3.6016-.6688 7.5232.9064 9.6632 3.88a40.768 40.768 0 0 1 7.9448-.2656M126.4938 160.1177c-2.0536-.5064-3.8128-1.7856-5.6376-2.8544-1.8248-1.0688-3.9168-1.9704-5.9992-1.6032a11.9328 11.9328 0 0 1 .124-3.6992c.044-.228.1072-.4752.2944-.612.1512-.1104.3512-.1232.5376-.1312a49.5483 49.5483 0 0 1 10.3552.6568l.6648 6.6232M173.2571 167.506c-1.9368-2.1568-3.6856-4.5112-5.9352-6.34-2.2488-1.828-5.1552-3.1072-8.0144-2.6328a40.0095 40.0095 0 0 1 1.2456-7.092c.0336-.1256.076-.2624.1856-.3328.0968-.0632.2208-.0568.336-.0488 2.5936.1824 5.1872.3656 7.7816.5488a1507.8692 1507.8692 0 0 1 3.3296 13.6528M112.6907 125.2302c-2.8888-.2968-5.236-2.3688-7.8744-3.5824-4.372-2.0112-9.7968-1.5152-13.7312 1.256-2.5664 1.8072-4.432 4.42-6.2464 6.9808-1.464 2.0656-2.964 4.2152-3.4432 6.7008 2.2728-.3152 4.6416.1064 6.6648 1.1864 2.7056-5.144 8.6784-7.5336 14.2472-9.1968a154.2056 154.2056 0 0 1 11.424-2.944" fill="#DEE6F7"/>
    <path d="M145.108 15.1196c-.6969-.9728-1.424-1.6176-2.184-1.8696-6.0193 1.9936-9.9553 28.5344-12.8913 48.2992-2.936 19.7648-8.9696 26.8856-18.7312 34.2784-9.7616 7.3928-8.708 22.2528-8.708 22.2528l.3808.0384.0184-.0496c.396-3.5296 2.468-6.6904 5.032-9.1488 2.5648-2.4576 5.6232-4.3248 8.5744-6.3016 6.7432-4.5192 13.328-10.1056 16.0328-17.76 3.3704-9.536.1136-20.5872 4.0744-29.8928 1.1248-2.6432 2.7936-5.0304 3.876-7.6904 1.1536-2.8336 1.6128-5.9456 1.328-8.9912-1.2752.6288-2.5512 1.2568-3.8264 1.8856-1.7112-2.7624.5488-7.0032 3.7968-7.1224-.8632-5.0296-1.6224-10.6112 1.1608-14.8872.6496-.9984 1.5-1.9952 2.0664-3.0408" fill="#FFF"/>
    <path d="M165.3556 148.4994c1.7088-2.2768 1.0512-5.5656-.2984-8.072-.3128-.5808-.6656-1.1672-.728-1.824-.1728-1.8112 1.8784-3.5824 1.04-5.1968.8856-.3328 1.8496-.7344 2.2744-1.58.4696-.9328.0816-2.1144-.644-2.8664-.7248-.752-1.7192-1.1712-2.6848-1.5712.9336-.28 1.072-1.568.7952-2.5016-.2768-.9344-.7872-1.8984-.4952-2.8288.0904-.288.2568-.5656.2376-.8672-.0488-.7688-1.104-.928-1.872-.86-1.828.1632-3.6568.3272-5.4848.4904-.5704 1.4016-2.4616 2.0744-3.7888 1.3472 1.732-2.14 2.192-5.2384 1.1544-7.7896-1.0376-2.5504-3.5288-4.4488-6.2632-4.7728-.3584-.0416-.7344-.064-1.0424-.2504-.8024-.4856-.6336-1.7608-.0104-2.4608.6232-.7 1.5328-1.0768 2.2224-1.712.6888-.6352 1.1064-1.788.4808-2.4856-1.8456-1.1416-1.4776-3.9216-2.448-5.8632-.8592-1.7176-2.7616-2.7096-3.684-4.3936-1.12-2.0432-.552-4.5432-.4312-6.8704.3024-5.8408-2.3592-12.0936.2744-17.3168.9296-1.8448 2.4392-3.3288 3.5576-5.0664 2.6216-4.0736 2.9584-9.2936 5.568-13.3752 1.232 5.3296 2.4672 10.6848 2.88 16.14.2312 3.0624.208 6.1792 1.04 9.1352.5816 2.0648 1.5664 3.9952 2.6624 5.8384 3.5696 6.0048 8.4008 11.2544 14.0888 15.308 1.7936 1.2784 3.688 2.4536 5.1984 4.0568 3.932 4.1728 4.5664 10.3736 4.9968 16.0912.0376.5008.0472 1.0768-.3224 1.4176-.2648.244-.652.2904-1.0104.3248-3.4936.3392-6.9872.6768-10.48 1.0152a25.4235 25.4235 0 0 1 .8336 8.4776c-.1464 2.0632-.5456 4.1288-.3264 6.1848.3 2.8112 1.7432 5.4728 1.604 8.296-.904 1.1456-3.5952-.1864-3.848 1.2512-.052.292.0608.5856.1704.8608l1.708 4.2728a46.7872 46.7872 0 0 1-6.9824.2056" fill="#66C2CC"/>
    <path d="M142.9235 13.2766c1.9536 0 7.5336 9.5448 10.764 34.14 3.2304 24.5952 6.1672 34.2864 12.5544 41.7752 6.388 7.4888 16.96 8.076 16.96 28.78l-22.5336 2.9368M157.7146 120.2337c.1064-4.9808-.4496-14.6616-6.3944-14.6616-8.0024 0-5.0656 18.5752-5.0656 18.5752s6.7544-1.7624 11.3064-1.028" stroke="#46587F" stroke-width="2.1536" stroke-linecap="round" stroke-linejoin="round"/>
    <path d="M178.797 112.686h-5.5664" stroke="#46587F" stroke-width=".9408" stroke-linecap="round" stroke-linejoin="round" stroke-dasharray="1.4112 1.4112 .4704"/>
    <path d="M151.3384 98.9563V76.9547M147.5938 39.6134v-4.384s-4.2584-3.892-10.2048 0v4.384c2.908-1.9032 5.4128-1.9448 7.2128-1.4904M149.4255 126.5392l1.9128 6.768h-1.3736" stroke="#46587F" stroke-width="2.1536" stroke-linecap="round" stroke-linejoin="round"/>
    <path d="M145.3314 149.8888c-.6016 2.032-1.3872 4.1768-2.408 6.392" stroke="#46587F" stroke-width=".9408" stroke-linecap="round" stroke-linejoin="round" stroke-dasharray="1.4112 1.4112 .4704"/>
    <path d="M147.066 134.4165c.1913 2.092.3465 6.5584-.904 12.2504M172.5876 123.3646v10.2808l1.9176 8.6488H159.954l-2.2288 6.0536h14.5616l-.904-2.8288M156.5696 142.2938h-1.316l2.632-8.9864v-6.328M167.3986 128.9829h-4.3352" stroke="#46587F" stroke-width="2.1536" stroke-linecap="round" stroke-linejoin="round"/>
    <path d="M164.9544 135.488v3.4592" stroke="#46587F" stroke-width=".9408" stroke-linecap="round" stroke-linejoin="round" stroke-dasharray="1.4112 1.4112 .4704"/>
    <path d="M159.3614 152.056c-.1736 2.2584-.5816 6.908-1.328 12.2168M170.2825 152.056c.1848 2.408.636 6.6648 1.4808 12.412M142.9235 13.2766c-1.9536 0-7.5336 9.5448-10.764 34.14-3.2304 24.5952-6.1672 34.2864-12.5544 41.7752-6.3872 7.4888-16.96 8.076-16.96 28.78l22.5344 2.9368M128.2864 123.1193s-1.7624-17.5472 6.2408-17.5472c8.0024 0 5.0656 18.5752 5.0656 18.5752s-3.9272-1.0248-7.8112-1.1856" stroke="#46587F" stroke-width="2.1536" stroke-linecap="round" stroke-linejoin="round"/>
    <path d="M111.7802 112.686h13.4736" stroke="#46587F" stroke-width=".9408" stroke-linecap="round" stroke-linejoin="round" stroke-dasharray="1.4112 1.4112 .4704"/>
    <path d="M134.5091 94.2509V59.658" stroke="#46587F" stroke-width="2.1536" stroke-linecap="round" stroke-linejoin="round"/>
    <path d="M142.9235 123.8048v12.9616" stroke="#46587F" stroke-width=".9408" stroke-linecap="round" stroke-linejoin="round" stroke-dasharray="1.4112 1.4112 .4704"/>
    <path d="M142.9235 106.5357v14.9M136.422 126.5392l-1.9128 6.768h1.468" stroke="#46587F" stroke-width="2.1536" stroke-linecap="round" stroke-linejoin="round"/>
    <path d="M139.4486 145.5193c.6208 3.2192 1.6888 6.8832 3.4752 10.7616" stroke="#46587F" stroke-width=".9408" stroke-linecap="round" stroke-linejoin="round" stroke-dasharray="1.4112 1.4112 .4704"/>
    <path d="M138.8087 134.1337c-.1504 1.4624-.3184 4.4192.1568 8.3176M113.2598 123.3646v10.2808l-1.9176 8.6488h14.5512l2.228 6.0536h-14.5608l.944-2.9528M128.6009 142.2938h1.9928l-2.632-8.9864v-6.768M118.4486 128.9829h4.336" stroke="#46587F" stroke-width="2.1536" stroke-linecap="round" stroke-linejoin="round"/>
    <path d="M120.8926 135.488v3.4592" stroke="#46587F" stroke-width=".9408" stroke-linecap="round" stroke-linejoin="round" stroke-dasharray="1.4112 1.4112 .4704"/>
    <path d="M126.504 152.2857c.0752.9632.1888 2.2984.3464 3.8952M115.565 152.056c-.1184 1.5424-.3464 4.2-.7168 7.4208" stroke="#46587F" stroke-width="2.1536" stroke-linecap="round" stroke-linejoin="round"/>
    <path d="M142.9235 67.6563v21.8832M90.2044 164.6622c3.096-8.0464 10.4056-14.0016 19.2264-15.1624" stroke="#46587F" stroke-width="1.8376" stroke-linecap="round" stroke-linejoin="round" stroke-dasharray=".548 2.2968"/>
    <path d="M173.7158 152.6591c6.1472 1.8336 11.26 6.0672 14.2512 11.6144" stroke="#46587F" stroke-width=".9408" stroke-linecap="round" stroke-linejoin="round" stroke-dasharray="1.4112 1.4112 .4704"/>
    <path d="M120.795 164.829c1.4976-3.0096 4.604-5.0776 8.1936-5.0776 3.6456 0 6.792 2.132 8.2624 5.2176" stroke="#46587F" stroke-width="2.1536" stroke-linecap="round" stroke-linejoin="round"/>
    <path d="M166.1154 167.8478h103.7144" stroke="#46587F" stroke-width="1.8376" stroke-linecap="round" stroke-linejoin="round" stroke-dasharray=".548 2.2968"/>
    <path d="M10.277 167.8478h152.7856M48.3923 164.663c2.196-2.5824 5.4688-4.2208 9.124-4.2208" stroke="#46587F" stroke-width="2.1536" stroke-linecap="round" stroke-linejoin="round"/>
    <path d="M217.436 160.0028c1.3264-.5064 2.7656-.7832 4.2696-.7832 4.0864 0 7.6952 2.0472 9.8552 5.172" stroke="#46587F" stroke-width="1.8376" stroke-linecap="round" stroke-linejoin="round" stroke-dasharray=".548 2.2968"/>
    <path d="M57.9017 160.0548a18.7992 18.7992 0 0 1-.3848-3.796c0-10.6848 8.9608-19.3464 20.0144-19.3464 4.0584 0 7.8352 1.168 10.9896 3.1744" stroke="#46587F" stroke-width="2.1536" stroke-linecap="round" stroke-linejoin="round"/>
    <path d="M80.7958 133.6513c2.8344-7.3544 10.1656-12.5936 18.7616-12.5936 3.74 0 7.2408.992 10.236 2.7176" stroke="#46587F" stroke-width=".9408" stroke-linecap="round" stroke-linejoin="round" stroke-dasharray="1.4112 1.4112 .4704"/>
    <path d="M186.9208 115.0298c9.5648 1.2008 17.1072 8.6272 18.1352 17.936M198.3938 137.5567c1.5608-.416 3.204-.6376 4.9016-.6376 10.1672 0 18.4104 7.968 18.4104 17.796M97.55 137.8802c-.9231-1.6712-.3167-3.7752 1.3545-4.6984 1.6712-.9232 3.7752-.3168 4.6984 1.3544M197.8673 153.7025c.6968-1.7776 2.7024-2.6544 4.4808-1.9584 1.7776.696 2.6544 2.7024 1.9584 4.48" stroke="#46587F" stroke-width="2.1536" stroke-linecap="round" stroke-linejoin="round"/>
  </g>
</svg>
