<?xml version="1.0" encoding="utf-8"?>
<!-- Generator: Adobe Illustrator 23.0.2, SVG Export Plug-In . SVG Version: 6.00 Build 0)  -->
<svg version="1.1" id="Layer_1" xmlns="http://www.w3.org/2000/svg" xmlns:xlink="http://www.w3.org/1999/xlink" x="0px" y="0px"
	 viewBox="0 0 40 40" style="enable-background:new 0 0 40 40;" xml:space="preserve">
<style type="text/css">
	.st0{fill:#4da6ff;}
</style>
		<path class="st0" d="M25.3,13.8c0-0.4-0.3-0.6-0.6-0.6H5.5c-0.4,0-0.6,0.3-0.6,0.6s0.3,0.6,0.6,0.6h19.2
			C25.1,14.4,25.3,14.1,25.3,13.8z"/>
		<path class="st0" d="M25.3,7.6c0-0.4-0.3-0.6-0.6-0.6H5.5c-0.4,0-0.6,0.3-0.6,0.6c0,0.4,0.3,0.6,0.6,0.6h19.2
			C25.1,8.2,25.3,7.9,25.3,7.6z"/>
		<path class="st0" d="M4.8,32.5c0,0.4,0.3,0.6,0.6,0.6h14.5c-0.3-0.4-0.6-0.8-0.8-1.2H5.5C5.2,31.9,4.8,32.2,4.8,32.5z"/>
		<path class="st0" d="M17.5,25.6h-12c-0.4,0-0.6,0.3-0.6,0.6c0,0.4,0.3,0.6,0.6,0.6h12.1c0-0.3,0-0.6,0-1
			C17.5,25.9,17.5,25.7,17.5,25.6z"/>
		<path class="st0" d="M19.5,19.4h-14c-0.4,0-0.6,0.3-0.6,0.6s0.3,0.6,0.6,0.6h13.3C18.9,20.2,19.2,19.7,19.5,19.4z"/>
		<path class="st0" d="M2.5,40h25c1.2,0,2.3-1,2.5-2.2c-0.2,0-0.4,0-0.6,0c-0.3,0-0.4,0-0.6,0c-0.2,0.5-0.6,1-1.2,1h-25
			c-0.7,0-1.2-0.5-1.2-1.2v-35c0-0.7,0.5-1.2,1.2-1.2h25c0.7,0,1.2,0.5,1.2,1.2V14c0.2,0,0.4,0,0.6,0s0.4,0,0.6,0V2.5
			C30,1.1,28.8,0,27.5,0h-25C1.2,0,0,1.2,0,2.5v35C0,38.8,1.2,40,2.5,40z"/>
		<path class="st0" d="M29.3,15.3c-5.9,0-10.7,4.7-10.7,10.7s4.7,10.7,10.7,10.7S40,31.9,40,26C40,20.1,35.2,15.3,29.3,15.3z
			 M29.3,35.3c-5.2,0-9.3-4.2-9.3-9.3s4.2-9.4,9.3-9.4s9.3,4.2,9.3,9.3C38.8,31.1,34.6,35.3,29.3,35.3z"/>
		<path class="st0" d="M32.6,19.6l-0.2-0.1c-1.1-0.5-2.4-0.1-2.9,1l-3.8,7.5l0,0c0,0,0,0,0,0.1c0,0,0,0,0,0.1c0,0,0,0,0,0.1
			c0,0,0,0,0,0.1l0,0v3.6c0,0.3,0.2,0.4,0.4,0.5c0.2,0.1,0.4,0.1,0.6-0.1l3-2.2c0,0,0.1,0,0.1-0.1l0,0l0.1-0.1l0,0l3.7-7.4
			C34.1,21.5,33.7,20.2,32.6,19.6C32.6,19.6,32.6,19.6,32.6,19.6L32.6,19.6z M26.9,30.7v-1.4l1.2,0.6L26.9,30.7z M29,28.9L27.1,28
			l2.6-5.1l1.9,0.9L29,28.9z M32.4,22l-0.4,0.7l-1.9-0.9l0.4-0.7c0.3-0.4,0.8-0.6,1.2-0.4l0.2,0.1C32.5,21,32.7,21.5,32.4,22z"/>
</svg>
